<svg xmlns="http://www.w3.org/2000/svg" width="40.204" height="40.204" viewBox="0 0 40.204 40.204">
  <path id="Trazado_222" data-name="Trazado 222" d="M30.233,40.2H9.971a10.045,10.045,0,0,1-2.01-.2A9.917,9.917,0,0,1,4.4,38.5,10,10,0,0,1,.784,34.114,9.921,9.921,0,0,1,.2,32.242a10.045,10.045,0,0,1-.2-2.01V9.971a10.045,10.045,0,0,1,.2-2.01A9.917,9.917,0,0,1,1.7,4.4,10,10,0,0,1,6.09.784,9.921,9.921,0,0,1,7.962.2,10.045,10.045,0,0,1,9.971,0H30.233a10.045,10.045,0,0,1,2.01.2,9.916,9.916,0,0,1,3.565,1.5A10,10,0,0,1,39.42,6.09,9.921,9.921,0,0,1,40,7.962a10.045,10.045,0,0,1,.2,2.01V30.233a10.045,10.045,0,0,1-.2,2.01,9.916,9.916,0,0,1-1.5,3.565,10,10,0,0,1-4.387,3.613A9.921,9.921,0,0,1,32.242,40,10.045,10.045,0,0,1,30.233,40.2ZM8.615,27.34h0a13.234,13.234,0,0,0,3.4,1.563,13.449,13.449,0,0,0,3.834.553,13.592,13.592,0,0,0,5.757-1.22,12.607,12.607,0,0,0,2.3-1.382,13,13,0,0,0,1.9-1.77,13.689,13.689,0,0,0,1.5-2.062,14.175,14.175,0,0,0,1.082-2.258,14.025,14.025,0,0,0,.656-2.36,13.041,13.041,0,0,0,.221-2.365c0-.223-.009-.433-.017-.61a9.423,9.423,0,0,0,2.363-2.447h0a9.869,9.869,0,0,1-2.717.745,4.692,4.692,0,0,0,2.075-2.606,9.437,9.437,0,0,1-2.99,1.141,4.718,4.718,0,0,0-3.444-1.492,4.685,4.685,0,0,0-2.638.807,4.731,4.731,0,0,0-1.7,2.076,4.69,4.69,0,0,0-.369,1.833,4.826,4.826,0,0,0,.109,1.075,13.37,13.37,0,0,1-2.844-.449A13.286,13.286,0,0,1,14.48,15.1a13.43,13.43,0,0,1-2.313-1.516,13.576,13.576,0,0,1-1.951-1.951,4.9,4.9,0,0,0-.475,1.131,4.7,4.7,0,0,0,.406,3.51,4.743,4.743,0,0,0,1.518,1.661,4.467,4.467,0,0,1-1.113-.166,4.782,4.782,0,0,1-1.017-.415V17.4a4.706,4.706,0,0,0,1.085,3.011,4.755,4.755,0,0,0,1.2,1.035,4.684,4.684,0,0,0,1.495.587,4.932,4.932,0,0,1-1.262.156,4.2,4.2,0,0,1-.867-.081,4.784,4.784,0,0,0,2.934,3.015,4.691,4.691,0,0,0,1.472.27A9.478,9.478,0,0,1,9.743,27.4,8.824,8.824,0,0,1,8.615,27.34Z" fill="#05e69b"/>
</svg>
