<svg xmlns="http://www.w3.org/2000/svg" width="40.004" height="40.003" viewBox="0 0 40.004 40.003">
  <path id="Exclusión_3" data-name="Exclusión 3" d="M19826,8995h-22a9.011,9.011,0,0,1-9-9v-22a9.01,9.01,0,0,1,9-9h22a9.01,9.01,0,0,1,9,9v22A9.011,9.011,0,0,1,19826,8995Zm-13.711-20.121v11.07h4.152v-11.07h2.768l1.385-3.46h-4.152v-2.763a1.386,1.386,0,0,1,1.385-1.384h1.383v-3.46h-2.768a4.156,4.156,0,0,0-4.152,4.152v3.454h-2.768v3.46Z" transform="translate(-19794.998 -8954.998)" fill="#05e69b"/>
</svg>
