<svg xmlns="http://www.w3.org/2000/svg" width="40.204" height="40.204" viewBox="0 0 40.204 40.204">
  <path id="Trazado_224" data-name="Trazado 224" d="M30.233,40.2H9.971a10.045,10.045,0,0,1-2.01-.2A9.917,9.917,0,0,1,4.4,38.5,10,10,0,0,1,.784,34.114,9.921,9.921,0,0,1,.2,32.242a10.045,10.045,0,0,1-.2-2.01V9.971a10.045,10.045,0,0,1,.2-2.01A9.917,9.917,0,0,1,1.7,4.4,10,10,0,0,1,6.09.784,9.921,9.921,0,0,1,7.962.2,10.045,10.045,0,0,1,9.971,0H30.233a10.045,10.045,0,0,1,2.01.2,9.916,9.916,0,0,1,3.565,1.5A10,10,0,0,1,39.42,6.09,9.921,9.921,0,0,1,40,7.962a10.045,10.045,0,0,1,.2,2.01V30.233a10.045,10.045,0,0,1-.2,2.01,9.916,9.916,0,0,1-1.5,3.565,10,10,0,0,1-4.387,3.613A9.921,9.921,0,0,1,32.242,40,10.045,10.045,0,0,1,30.233,40.2ZM6.461,15.715V26.11a4.02,4.02,0,0,0,4.023,4.023H29.7a4.02,4.02,0,0,0,4.023-4.023V15.715l-12.841,7.82a1.549,1.549,0,0,1-1.609,0Zm4.023-5.664a3.937,3.937,0,0,0-1.355.239A4.006,4.006,0,0,0,6.59,13.2l13.516,8.239L33.591,13.2a3.956,3.956,0,0,0-.5-1.253,4.02,4.02,0,0,0-2.035-1.661,3.937,3.937,0,0,0-1.355-.239Z" fill="#05e69b"/>
</svg>
