<svg xmlns="http://www.w3.org/2000/svg" width="40.004" height="40.003" viewBox="0 0 40.004 40.003">
  <path id="Exclusión_4" data-name="Exclusión 4" d="M19826,8995h-22a9.011,9.011,0,0,1-9-9v-22a9.01,9.01,0,0,1,9-9h22a9.01,9.01,0,0,1,9,9v22A9.011,9.011,0,0,1,19826,8995Zm-10.484-31.187a11.094,11.094,0,0,0-9.607,16.627l-1.572,5.744,5.873-1.538a11.158,11.158,0,0,0,5.3,1.349h.006a11.091,11.091,0,0,0,0-22.182Zm0,20.311h-.006a9.215,9.215,0,0,1-4.687-1.29l-.34-.2-3.484.915.926-3.4-.219-.349a9.216,9.216,0,1,1,7.811,4.321Zm-3.928-14.347a1,1,0,0,0-.736.349q-.026.029-.059.062a3.051,3.051,0,0,0-.912,2.248,5.341,5.341,0,0,0,1.129,2.867q.015.019.053.076a11.762,11.762,0,0,0,4.682,4.105,15.47,15.47,0,0,0,1.578.582,3.45,3.45,0,0,0,1.066.166,4.243,4.243,0,0,0,.676-.057,2.855,2.855,0,0,0,1.873-1.313,2.324,2.324,0,0,0,.158-1.319.852.852,0,0,0-.367-.244l-.059-.029-.1-.05c-.242-.122-1.629-.8-1.893-.9a.932.932,0,0,0-.3-.07.386.386,0,0,0-.328.21c-.184.277-.707.9-.875,1.085a.382.382,0,0,1-.3.159.684.684,0,0,1-.3-.09c-.043-.021-.1-.046-.168-.076l-.012,0a7.243,7.243,0,0,1-2.051-1.293,8.361,8.361,0,0,1-1.539-1.921.381.381,0,0,1,.088-.522.424.424,0,0,0,.033-.04,7.7,7.7,0,0,0,.691-.946.5.5,0,0,0-.025-.487c-.039-.085-.258-.615-.459-1.106-.143-.349-.293-.713-.393-.949-.2-.479-.4-.479-.562-.479h-.059C19811.951,8969.782,19811.768,8969.777,19811.59,8969.777Z" transform="translate(-19794.998 -8954.998)" fill="#05e69b"/>
</svg>
